<?xml version="1.0" standalone="no"?>
<!DOCTYPE svg PUBLIC "-//W3C//DTD SVG 1.1//EN" "http://www.w3.org/Graphics/SVG/1.1/DTD/svg11.dtd">
<svg width="484" height="484" version="1.1" xmlns="http://www.w3.org/2000/svg">
  <title>30 cells diameter theta maze</title>
  <desc>30 cells diameter theta maze generated by The Maze Generator Website (http://www.mazegenerator.net/).</desc>
  <g fill="none" stroke="#000000" stroke-width="2" stroke-linecap="square">
    <path d="M 220.37258300203047,265.62741699796953 A 32,32 0 1,1 243,275" />
    <path d="M 224.63119524647567,198.65378243945824 A 48,48 0 0,1 276.94112549695427,209.05887450304573" />
    <path d="M 287.34621756054179,224.6311952464757 A 48,48 0 0,1 287.34621756054179,261.36880475352433" />
    <path d="M 261.36880475352433,287.34621756054173 A 48,48 0 0,1 209.05887450304573,276.94112549695427" />
    <path d="M 198.65378243945824,261.36880475352433 A 48,48 0 0,1 198.65378243945824,224.63119524647567" />
    <path d="M 267.49173967136574,183.87170991927764 A 64,64 0 0,1 307,243" />
    <path d="M 302.12829008072237,267.49173967136574 A 64,64 0 0,1 288.25483399593907,288.25483399593907" />
    <path d="M 218.50826032863427,302.12829008072237 A 64,64 0 0,1 218.50826032863421,183.87170991927766" />
    <path d="M 227.39277423870971,164.53717756774157 A 80,80 0 0,1 243,163" />
    <path d="M 258.60722576129024,164.53717756774157 A 80,80 0 0,1 273.6146745892072,169.08963739909706" />
    <path d="M 321.46282243225846,258.60722576129024 A 80,80 0 0,1 309.51756898420365,287.44561864156816" />
    <path d="M 299.5685424949238,299.5685424949238 A 80,80 0 0,1 287.44561864156816,309.51756898420365" />
    <path d="M 273.6146745892072,316.91036260090294 A 80,80 0 0,1 198.55438135843184,309.51756898420365" />
    <path d="M 186.4314575050762,299.5685424949238 A 80,80 0 0,1 176.48243101579638,287.44561864156816" />
    <path d="M 169.08963739909706,273.6146745892072 A 80,80 0 0,1 186.4314575050762,186.4314575050762" />
    <path d="M 198.55438135843181,176.48243101579638 A 80,80 0 0,1 212.38532541079277,169.08963739909709" />
    <path d="M 189.66525763011819,163.17891721895566 A 96,96 0 0,1 261.72867091354829,148.84461308128988" />
    <path d="M 279.7376095070486,154.30756487891648 A 96,96 0 0,1 322.82108278104431,189.66525763011819" />
    <path d="M 331.69243512108352,206.26239049295137 A 96,96 0 0,1 337.15538691871012,224.27132908645169" />
    <path d="M 339,243 A 96,96 0 0,1 337.15538691871012,261.72867091354829" />
    <path d="M 296.33474236988178,322.82108278104437 A 96,96 0 0,1 206.2623904929514,331.69243512108352" />
    <path d="M 163.17891721895566,296.33474236988184 A 96,96 0 0,1 154.30756487891648,279.73760950704866" />
    <path d="M 148.84461308128988,224.27132908645169 A 96,96 0 0,1 154.30756487891648,206.26239049295137" />
    <path d="M 139.5254923587359,200.13945557510994 A 112,112 0 0,1 243,131" />
    <path d="M 264.85011606580639,133.15204859483819 A 112,112 0 0,1 305.22386609819546,149.87540342211491" />
    <path d="M 336.12459657788509,180.77613390180454 A 112,112 0 0,1 355,243" />
    <path d="M 352.84795140516178,264.85011606580633 A 112,112 0 0,1 305.22386609819546,336.12459657788509" />
    <path d="M 285.86054442489007,346.4745076412641 A 112,112 0 0,1 221.14988393419361,352.84795140516178" />
    <path d="M 200.13945557510996,346.47450764126415 A 112,112 0 0,1 133.15204859483819,264.85011606580639" />
    <path d="M 131,243.00000000000003 A 112,112 0 0,1 133.15204859483819,221.14988393419364" />
    <path d="M 218.02843878193553,117.45948410838652 A 128,128 0 0,1 267.97156121806444,117.45948410838651" />
    <path d="M 291.98347934273147,124.7434198385553 A 128,128 0 0,1 333.50966799187808,152.49033200812193" />
    <path d="M 349.4281103747258,171.88701017349092 A 128,128 0 0,1 361.25658016144473,194.0165206572685" />
    <path d="M 368.5405158916135,267.97156121806438 A 128,128 0 0,1 361.25658016144473,291.98347934273147" />
    <path d="M 333.50966799187808,333.50966799187808 A 128,128 0 0,1 243.00000000000003,371" />
    <path d="M 218.02843878193556,368.5405158916135 A 128,128 0 0,1 136.5718896252742,314.11298982650908" />
    <path d="M 117.45948410838652,267.97156121806449 A 128,128 0 0,1 124.74341983855531,194.01652065726847" />
    <path d="M 243,99 A 144,144 0 0,1 257.11446820745675,99.693399359203653" />
    <path d="M 271.09300637032248,101.76691962193482 A 144,144 0 0,1 298.10641426057293,109.96134731837472" />
    <path d="M 310.88113010294364,116.00333793383688 A 144,144 0 0,1 323.0021135548227,123.26837582843348" />
    <path d="M 344.82337649086287,141.17662350913716 A 144,144 0 0,1 354.31350528423411,151.64736708043506" />
    <path d="M 369.99666206616314,175.1188698970563 A 144,144 0 0,1 380.79940834543811,201.19900647535744" />
    <path d="M 384.23308037806521,214.90699362967752 A 144,144 0 0,1 386.30660064079632,228.88553179254325" />
    <path d="M 387,243 A 144,144 0 0,1 386.30660064079632,257.11446820745675" />
    <path d="M 380.79940834543811,284.80099352464254 A 144,144 0 0,1 271.09300637032254,384.23308037806521" />
    <path d="M 257.11446820745675,386.30660064079632 A 144,144 0 0,1 243.00000000000003,387" />
    <path d="M 228.88553179254328,386.30660064079632 A 144,144 0 0,1 214.90699362967752,384.23308037806521" />
    <path d="M 175.11886989705636,369.99666206616314 A 144,144 0 0,1 109.96134731837475,298.106414260573" />
    <path d="M 105.20059165456192,284.80099352464259 A 144,144 0 0,1 99.693399359203653,257.1144682074567" />
    <path d="M 105.20059165456192,201.19900647535746 A 144,144 0 0,1 123.26837582843345,162.99788644517733" />
    <path d="M 131.68649471576589,151.64736708043503 A 144,144 0 0,1 162.9978864451773,123.26837582843349" />
    <path d="M 175.1188698970563,116.0033379338369 A 144,144 0 0,1 201.19900647535741,105.20059165456192" />
    <path d="M 227.31725754727032,83.770443732448484 A 160,160 0 0,1 258.68274245272971,83.770443732448484" />
    <path d="M 289.445548360714,89.8895462828466 A 160,160 0 0,1 344.50292546618329,119.31832746196209" />
    <path d="M 366.6816725380379,141.49707453381672 A 160,160 0 0,1 376.03513796840724,154.10876271686362" />
    <path d="M 384.10740229573679,167.57652210784036 A 160,160 0 0,1 403,243" />
    <path d="M 402.22955626755152,258.68274245272971 A 160,160 0 0,1 399.92564486451687,274.21445152258053" />
    <path d="M 396.1104537171534,289.44554836071393 A 160,160 0 0,1 366.6816725380379,344.50292546618323" />
    <path d="M 344.50292546618329,366.6816725380379 A 160,160 0 0,1 331.89123728313632,376.03513796840724" />
    <path d="M 304.2293491784144,390.82072520180589 A 160,160 0 0,1 258.68274245272971,402.22955626755152" />
    <path d="M 243.00000000000003,403 A 160,160 0 0,1 196.55445163928607,396.1104537171534" />
    <path d="M 181.77065082158566,390.82072520180589 A 160,160 0 0,1 167.57652210784039,384.10740229573685" />
    <path d="M 154.10876271686368,376.0351379684073 A 160,160 0 0,1 141.49707453381677,366.68167253803796" />
    <path d="M 129.86291501015242,356.13708498984761 A 160,160 0 0,1 119.31832746196214,344.50292546618334" />
    <path d="M 101.89259770426321,318.42347789215967 A 160,160 0 0,1 89.8895462828466,289.445548360714" />
    <path d="M 83.770443732448484,258.68274245272966 A 160,160 0 0,1 83,243.00000000000003" />
    <path d="M 83.770443732448484,227.3172575472704 A 160,160 0 0,1 86.074355135483131,211.78554847741947" />
    <path d="M 95.179274798194143,181.77065082158561 A 160,160 0 0,1 119.3183274619621,141.49707453381672" />
    <path d="M 154.10876271686362,109.96486203159276 A 160,160 0 0,1 167.57652210784033,101.89259770426321" />
    <path d="M 225.74898330199736,67.847488105693344 A 176,176 0 0,1 325.96582568137558,87.7818574746895" />
    <path d="M 340.78036101145,96.66134823475204 A 176,176 0 0,1 398.21814252531044,160.0341743186244" />
    <path d="M 405.60279772198646,175.6477159037442 A 176,176 0 0,1 415.61820935096853,208.66410332516142" />
    <path d="M 418.15251189430666,225.7489833019973 A 176,176 0 0,1 367.45079348883235,367.45079348883235" />
    <path d="M 354.65321801280163,379.04983979184169 A 176,176 0 0,1 243.00000000000003,419" />
    <path d="M 225.74898330199733,418.15251189430666 A 176,176 0 0,1 191.90989680321468,411.42149908886881" />
    <path d="M 160.03417431862442,398.2181425253105 A 176,176 0 0,1 118.54920651116765,367.4507934888324" />
    <path d="M 106.95016020815834,354.65321801280169 A 176,176 0 0,1 87.781857474689531,325.96582568137563" />
    <path d="M 80.397202278013566,310.35228409625591 A 176,176 0 0,1 70.381790649031444,277.33589667483864" />
    <path d="M 67,243.00000000000003 A 176,176 0 0,1 87.7818574746895,160.03417431862442" />
    <path d="M 96.661348234751983,145.21963898855006 A 176,176 0 0,1 106.95016020815831,131.34678198719837" />
    <path d="M 131.34678198719831,106.95016020815837 A 176,176 0 0,1 145.21963898855,96.66134823475204" />
    <path d="M 160.03417431862437,87.781857474689531 A 176,176 0 0,1 208.66410332516134,70.381790649031444" />
    <path d="M 224.18070905672437,51.924532478938204 A 192,192 0 0,1 243,51" />
    <path d="M 280.45734182709663,54.689226162579757 A 192,192 0 0,1 316.47521901409721,65.615129757832932" />
    <path d="M 364.80351055941992,94.58199295435449 A 192,192 0 0,1 402.64216556208868,136.33051526023638" />
    <path d="M 412.32888275488415,152.49182652940843 A 192,192 0 0,1 420.38487024216704,169.52478098590274" />
    <path d="M 431.31077383742024,205.54265817290337 A 192,192 0 0,1 434.0754675210618,224.18070905672434" />
    <path d="M 435,243 A 192,192 0 0,1 434.0754675210618,261.81929094327563" />
    <path d="M 412.32888275488415,333.50817347059154 A 192,192 0 0,1 391.41800704564548,364.80351055941992" />
    <path d="M 378.76450198781714,378.76450198781708 A 192,192 0 0,1 333.5081734705916,412.32888275488415" />
    <path d="M 298.73465803285677,426.73254446058411 A 192,192 0 0,1 224.18070905672437,434.0754675210618" />
    <path d="M 205.54265817290337,431.31077383742024 A 192,192 0 0,1 187.26534196714329,426.73254446058411" />
    <path d="M 169.52478098590279,420.38487024216704 A 192,192 0 0,1 152.49182652940846,412.32888275488415" />
    <path d="M 121.19648944058011,391.41800704564554 A 192,192 0 0,1 59.267455539415892,298.73465803285677" />
    <path d="M 54.689226162579757,280.45734182709668 A 192,192 0 0,1 51.924532478938175,224.18070905672445" />
    <path d="M 59.267455539415892,187.26534196714329 A 192,192 0 0,1 83.357834437911265,136.33051526023644" />
    <path d="M 94.581992954354519,121.19648944058005 A 192,192 0 0,1 121.19648944057998,94.581992954354575" />
    <path d="M 136.33051526023638,83.357834437911322 A 192,192 0 0,1 152.4918265294084,73.671117245115852" />
    <path d="M 169.52478098590262,65.615129757832989 A 192,192 0 0,1 205.54265817290329,54.689226162579757" />
    <path d="M 243,35 A 208,208 0 0,1 283.57878697935467,38.99666167612807" />
    <path d="M 322.59815393193867,50.833057237652355 A 208,208 0 0,1 341.05052125980751,59.560377015542144" />
    <path d="M 358.55860846807724,70.054320641070575 A 208,208 0 0,1 390.07821048680188,95.921789513198121" />
    <path d="M 403.78617429944927,111.04619689396174 A 208,208 0 0,1 426.43962298445786,144.94947874019246" />
    <path d="M 442.04358983229946,182.62078713107184 A 208,208 0 0,1 447.00333832387196,202.42121302064533" />
    <path d="M 449.99842314781694,222.61243481145135 A 208,208 0 0,1 451,243" />
    <path d="M 447.00333832387196,283.57878697935467 A 208,208 0 0,1 426.43962298445786,341.05052125980751" />
    <path d="M 403.78617429944927,374.95380310603821 A 208,208 0 0,1 390.07821048680194,390.07821048680188" />
    <path d="M 374.95380310603826,403.78617429944927 A 208,208 0 0,1 322.59815393193867,435.16694276234762" />
    <path d="M 283.57878697935473,447.00333832387196 A 208,208 0 0,1 163.40184606806136,435.16694276234762" />
    <path d="M 144.94947874019249,426.43962298445786 A 208,208 0 0,1 111.04619689396179,403.78617429944933" />
    <path d="M 95.921789513198149,390.07821048680194 A 208,208 0 0,1 82.213825700550785,374.95380310603832" />
    <path d="M 70.054320641070575,358.55860846807724 A 208,208 0 0,1 43.956410167700568,303.37921286892816" />
    <path d="M 36.001576852183035,263.38756518854859 A 208,208 0 0,1 35,243.00000000000003" />
    <path d="M 43.95641016770054,182.62078713107189 A 208,208 0 0,1 50.833057237652383,163.40184606806128" />
    <path d="M 59.560377015542144,144.94947874019249 A 208,208 0 0,1 82.213825700550728,111.04619689396171" />
    <path d="M 111.04619689396165,82.213825700550785 A 208,208 0 0,1 222.61243481145141,36.001576852183035" />
    <path d="M 199.29976786838716,23.304097189676412 A 224,224 0 0,1 264.95583943382155,20.078621225427895" />
    <path d="M 348.59286904902348,45.449636785968465 A 224,224 0 0,1 367.44773219639092,56.750806844229857" />
    <path d="M 385.10409565265661,69.84565844674691 A 224,224 0 0,1 416.15434155325306,100.89590434734339" />
    <path d="M 429.24919315577012,118.5522678036091 A 224,224 0 0,1 462.69590281032362,199.29976786838725" />
    <path d="M 467,243 A 224,224 0 0,1 462.69590281032362,286.70023213161272" />
    <path d="M 457.35463520401481,308.0237677049995 A 224,224 0 0,1 429.24919315577017,367.44773219639086" />
    <path d="M 401.39191898578667,401.39191898578662 A 224,224 0 0,1 367.44773219639086,429.24919315577017" />
    <path d="M 348.59286904902353,440.55036321403151 A 224,224 0 0,1 308.02376770499956,457.35463520401481" />
    <path d="M 264.95583943382161,465.92137877457208 A 224,224 0 0,1 243.00000000000003,467" />
    <path d="M 221.04416056617842,465.92137877457208 A 224,224 0 0,1 177.9762322950005,457.35463520401481" />
    <path d="M 157.27891115021993,449.94901528252825 A 224,224 0 0,1 137.40713095097652,440.55036321403156" />
    <path d="M 100.89590434734345,416.15434155325312 A 224,224 0 0,1 84.608081014213383,401.39191898578667" />
    <path d="M 69.845658446747,385.10409565265667 A 224,224 0 0,1 56.750806844229857,367.44773219639092" />
    <path d="M 28.645364795985216,308.02376770499961 A 224,224 0 0,1 20.078621225427895,264.95583943382155" />
    <path d="M 20.078621225427895,221.04416056617853 A 224,224 0 0,1 45.449636785968465,137.40713095097655" />
    <path d="M 84.608081014213326,84.608081014213383 A 224,224 0 0,1 100.8959043473433,69.845658446747" />
    <path d="M 137.40713095097647,45.449636785968522 A 224,224 0 0,1 157.27891115021976,36.050984717471835" />
    <path d="M 266.52411367909457,4.1556655986727549 A 240,240 0 1,1 243,3" />
  </g>
  <g fill="none" stroke="#000000" stroke-width="2" stroke-linecap="butt">
    <line x1="243" y1="19" x2="243" y2="35" />
    <line x1="243" y1="99" x2="243" y2="115" />
    <line x1="243" y1="163" x2="243" y2="195" />
    <line x1="263.38756518854859" y1="36.001576852183035" x2="260.25101669800267" y2="67.847488105693344" />
    <line x1="289.82167728387077" y1="7.6115327032246967" x2="280.45734182709663" y2="54.689226162579757" />
    <line x1="277.33589667483858" y1="70.381790649031444" x2="271.09300637032248" y2="101.76691962193482" />
    <line x1="267.97156121806444" y1="117.45948410838651" x2="258.60722576129024" y2="164.53717756774157" />
    <line x1="312.66832254107095" y1="13.334319424269893" x2="303.37921286892816" y2="43.956410167700568" />
    <line x1="328.72108884978013" y1="36.050984717471778" x2="316.47521901409721" y2="65.61512975783296" />
    <line x1="298.10641426057293" y1="109.96134731837472" x2="291.98347934273147" y2="124.7434198385553" />
    <line x1="273.6146745892072" y1="169.08963739909706" x2="267.49173967136574" y2="183.87170991927764" />
    <line x1="333.50817347059154" y1="73.671117245115823" x2="325.96582568137558" y2="87.7818574746895" />
    <line x1="318.42347789215961" y1="101.89259770426318" x2="310.88113010294364" y2="116.00333793383688" />
    <line x1="376.33685592470454" y1="43.447293047389138" x2="331.89123728313632" y2="109.96486203159276" />
    <line x1="296.33474236988184" y1="163.17891721895566" x2="287.44561864156816" y2="176.48243101579638" />
    <line x1="344.50292546618329" y1="119.31832746196209" x2="334.35263291956494" y2="131.68649471576589" />
    <line x1="367.45079348883235" y1="118.54920651116763" x2="356.13708498984761" y2="129.86291501015239" />
    <line x1="344.82337649086287" y1="141.17662350913713" x2="310.88225099390854" y2="175.11774900609143" />
    <line x1="299.5685424949238" y1="186.4314575050762" x2="288.25483399593907" y2="197.74516600406096" />
    <line x1="276.94112549695427" y1="209.05887450304573" x2="265.62741699796953" y2="220.37258300203047" />
    <line x1="428.52250880705685" y1="90.745611800725072" x2="416.15434155325306" y2="100.89590434734342" />
    <line x1="403.78617429944927" y1="111.04619689396174" x2="391.41800704564548" y2="121.19648944058007" />
    <line x1="366.6816725380379" y1="141.49707453381672" x2="354.31350528423411" y2="151.64736708043506" />
    <line x1="429.24919315577017" y1="118.55226780360908" x2="415.9456793589294" y2="127.44139153192272" />
    <line x1="376.03513796840724" y1="154.10876271686362" x2="336.12459657788509" y2="180.77613390180454" />
    <line x1="322.82108278104431" y1="189.66525763011816" x2="309.51756898420365" y2="198.55438135843181" />
    <line x1="426.43962298445786" y1="144.94947874019246" x2="369.99666206616314" y2="175.1188698970563" />
    <line x1="449.94901528252819" y1="157.27891115021987" x2="435.16694276234762" y2="163.40184606806133" />
    <line x1="316.91036260090294" y1="212.3853254107928" x2="287.34621756054173" y2="224.6311952464757" />
    <line x1="442.04358983229946" y1="182.62078713107184" x2="411.42149908886881" y2="191.90989680321462" />
    <line x1="447.00333832387196" y1="202.4212130206453" x2="431.31077383742024" y2="205.54265817290337" />
    <line x1="399.92564486451687" y1="211.78554847741947" x2="368.5405158916135" y2="218.02843878193556" />
    <line x1="352.84795140516178" y1="221.14988393419364" x2="321.46282243225846" y2="227.39277423870973" />
    <line x1="481.84433440132727" y1="219.47588632090543" x2="449.99842314781694" y2="222.61243481145135" />
    <line x1="434.0754675210618" y1="224.18070905672434" x2="402.22955626755152" y2="227.31725754727029" />
    <line x1="451" y1="243" x2="435" y2="243" />
    <line x1="403" y1="243" x2="371" y2="243" />
    <line x1="339" y1="243" x2="307" y2="243" />
    <line x1="465.92137877457208" y1="264.95583943382161" x2="449.998423147817" y2="263.38756518854859" />
    <line x1="462.69590281032362" y1="286.70023213161272" x2="431.31077383742024" y2="280.45734182709663" />
    <line x1="415.61820935096853" y1="277.33589667483858" x2="352.84795140516178" y2="264.85011606580633" />
    <line x1="426.73254446058411" y1="298.73465803285671" x2="411.42149908886881" y2="294.09010319678532" />
    <line x1="396.1104537171534" y1="289.44554836071393" x2="380.79940834543811" y2="284.80099352464254" />
    <line x1="420.38487024216704" y1="316.47521901409721" x2="405.60279772198646" y2="310.3522840962558" />
    <line x1="331.69243512108352" y1="279.7376095070486" x2="316.91036260090294" y2="273.6146745892072" />
    <line x1="426.43962298445786" y1="341.05052125980751" x2="412.32888275488415" y2="333.50817347059154" />
    <line x1="442.55270695261095" y1="376.33685592470448" x2="415.94567935892945" y2="358.55860846807718" />
    <line x1="362.73162417156652" y1="323.0021135548227" x2="349.4281103747258" y2="314.11298982650908" />
    <line x1="336.12459657788509" y1="305.2238660981954" x2="309.51756898420365" y2="287.44561864156816" />
    <line x1="416.15434155325312" y1="385.10409565265655" x2="379.04983979184169" y2="354.65321801280157" />
    <line x1="390.07821048680194" y1="390.07821048680188" x2="378.76450198781714" y2="378.76450198781708" />
    <line x1="367.45079348883235" y1="367.45079348883235" x2="344.82337649086287" y2="344.82337649086287" />
    <line x1="333.50966799187808" y1="333.50966799187808" x2="322.19595949289334" y2="322.19595949289328" />
    <line x1="310.88225099390854" y1="310.88225099390854" x2="265.62741699796953" y2="265.62741699796953" />
    <line x1="385.10409565265661" y1="416.15434155325306" x2="374.95380310603826" y2="403.78617429944927" />
    <line x1="354.65321801280163" y1="379.04983979184169" x2="344.50292546618329" y2="366.6816725380379" />
    <line x1="296.33474236988184" y1="322.82108278104437" x2="287.44561864156816" y2="309.51756898420365" />
    <line x1="356.1352168382395" y1="454.66110344360516" x2="348.59286904902353" y2="440.55036321403151" />
    <line x1="318.42347789215967" y1="384.10740229573679" x2="310.8811301029437" y2="369.99666206616314" />
    <line x1="322.59815393193867" y1="435.16694276234762" x2="310.3522840962558" y2="405.60279772198646" />
    <line x1="273.6146745892072" y1="316.91036260090294" x2="261.36880475352433" y2="287.34621756054173" />
    <line x1="308.02376770499956" y1="457.35463520401481" x2="298.73465803285677" y2="426.73254446058411" />
    <line x1="289.82167728387088" y1="478.38846729677527" x2="286.70023213161278" y2="462.69590281032362" />
    <line x1="264.95583943382161" y1="465.92137877457208" x2="263.38756518854865" y2="449.99842314781694" />
    <line x1="258.68274245272971" y1="402.22955626755152" x2="257.11446820745675" y2="386.30660064079632" />
    <line x1="243.00000000000003" y1="419" x2="243.00000000000003" y2="403" />
    <line x1="243.00000000000003" y1="387" x2="243.00000000000003" y2="371" />
    <line x1="243" y1="323" x2="243" y2="307" />
    <line x1="219.47588632090546" y1="481.84433440132727" x2="221.04416056617842" y2="465.92137877457208" />
    <line x1="224.18070905672437" y1="434.0754675210618" x2="225.74898330199733" y2="418.15251189430666" />
    <line x1="227.31725754727032" y1="402.22955626755152" x2="228.88553179254328" y2="386.30660064079632" />
    <line x1="214.90699362967752" y1="384.23308037806521" x2="224.27132908645169" y2="337.15538691871012" />
    <line x1="187.26534196714329" y1="426.73254446058411" x2="191.90989680321468" y2="411.42149908886881" />
    <line x1="196.55445163928607" y1="396.1104537171534" x2="201.19900647535746" y2="380.79940834543811" />
    <line x1="157.27891115021993" y1="449.94901528252825" x2="194.01652065726853" y2="361.25658016144473" />
    <line x1="160.03417431862442" y1="398.2181425253105" x2="167.57652210784039" y2="384.10740229573685" />
    <line x1="118.55226780360917" y1="429.24919315577017" x2="136.33051526023644" y2="402.64216556208874" />
    <line x1="180.7761339018046" y1="336.12459657788509" x2="198.55438135843184" y2="309.51756898420365" />
    <line x1="100.89590434734345" y1="416.15434155325312" x2="111.04619689396179" y2="403.78617429944933" />
    <line x1="141.49707453381677" y1="366.6816725380379" x2="151.64736708043509" y2="354.31350528423411" />
    <line x1="73.294372515228616" y1="412.70562748477141" x2="84.608081014213383" y2="401.39191898578667" />
    <line x1="95.921789513198121" y1="390.07821048680194" x2="107.23549801218289" y2="378.76450198781714" />
    <line x1="118.54920651116765" y1="367.4507934888324" x2="129.86291501015239" y2="356.13708498984761" />
    <line x1="163.80404050710669" y1="322.19595949289334" x2="197.74516600406096" y2="288.25483399593907" />
    <line x1="209.05887450304573" y1="276.94112549695427" x2="220.37258300203047" y2="265.62741699796953" />
    <line x1="69.845658446747" y1="385.10409565265672" x2="82.213825700550785" y2="374.95380310603832" />
    <line x1="106.95016020815834" y1="354.65321801280169" x2="119.31832746196213" y2="344.50292546618334" />
    <line x1="56.750806844229857" y1="367.44773219639092" x2="70.0543206410706" y2="358.55860846807724" />
    <line x1="109.96486203159276" y1="331.89123728313632" x2="123.26837582843349" y2="323.0021135548227" />
    <line x1="31.338896556394815" y1="356.1352168382395" x2="45.449636785968494" y2="348.59286904902353" />
    <line x1="87.781857474689531" y1="325.96582568137563" x2="101.89259770426321" y2="318.42347789215967" />
    <line x1="21.268912197291229" y1="334.84402376762171" x2="50.833057237652412" y2="322.59815393193878" />
    <line x1="109.96134731837475" y1="298.106414260573" x2="139.5254923587359" y2="285.86054442489012" />
    <line x1="154.30756487891648" y1="279.73760950704866" x2="169.08963739909709" y2="273.6146745892072" />
    <line x1="59.267455539415892" y1="298.73465803285677" x2="74.578500911131243" y2="294.09010319678538" />
    <line x1="89.8895462828466" y1="289.445548360714" x2="105.20059165456192" y2="284.80099352464259" />
    <line x1="23.304097189676412" y1="286.70023213161284" x2="54.689226162579786" y2="280.45734182709668" />
    <line x1="70.381790649031473" y1="277.33589667483864" x2="86.07435513548316" y2="274.21445152258059" />
    <line x1="101.76691962193485" y1="271.09300637032254" x2="117.45948410838652" y2="267.97156121806449" />
    <line x1="133.15204859483822" y1="264.85011606580639" x2="148.84461308128988" y2="261.72867091354834" />
    <line x1="51.924532478938204" y1="261.81929094327563" x2="67.847488105693344" y2="260.25101669800262" />
    <line x1="83.770443732448484" y1="258.68274245272966" x2="99.693399359203653" y2="257.1144682074567" />
    <line x1="3" y1="243.00000000000006" x2="35" y2="243.00000000000003" />
    <line x1="67" y1="243.00000000000003" x2="99" y2="243.00000000000003" />
    <line x1="115" y1="243.00000000000003" x2="163" y2="243.00000000000003" />
    <line x1="20.078621225427895" y1="221.04416056617853" x2="51.924532478938204" y2="224.18070905672445" />
    <line x1="83.770443732448484" y1="227.31725754727037" x2="99.693399359203653" y2="228.88553179254336" />
    <line x1="38.99666167612807" y1="202.42121302064533" x2="70.381790649031444" y2="208.66410332516142" />
    <line x1="86.074355135483131" y1="211.78554847741947" x2="117.45948410838651" y2="218.02843878193556" />
    <line x1="74.578500911131215" y1="191.90989680321468" x2="89.889546282846567" y2="196.55445163928607" />
    <line x1="50.833057237652383" y1="163.40184606806128" x2="65.61512975783296" y2="169.52478098590274" />
    <line x1="95.179274798194143" y1="181.77065082158561" x2="109.96134731837472" y2="187.89358573942704" />
    <line x1="139.5254923587359" y1="200.13945557510994" x2="154.30756487891648" y2="206.26239049295137" />
    <line x1="183.87170991927766" y1="218.50826032863424" x2="198.65378243945824" y2="224.63119524647567" />
    <line x1="45.449636785968465" y1="137.40713095097652" x2="59.560377015542144" y2="144.94947874019249" />
    <line x1="73.671117245115823" y1="152.49182652940846" x2="87.7818574746895" y2="160.03417431862442" />
    <line x1="43.447293047389081" y1="109.66314407529555" x2="56.750806844229828" y2="118.55226780360918" />
    <line x1="70.054320641070547" y1="127.44139153192282" x2="83.357834437911265" y2="136.33051526023644" />
    <line x1="96.661348234752012" y1="145.21963898855006" x2="109.96486203159273" y2="154.10876271686371" />
    <line x1="123.26837582843345" y1="162.99788644517733" x2="136.5718896252742" y2="171.88701017349098" />
    <line x1="163.17891721895563" y1="189.66525763011822" x2="176.48243101579635" y2="198.55438135843184" />
    <line x1="69.845658446746938" y1="100.89590434734339" x2="82.213825700550728" y2="111.04619689396171" />
    <line x1="94.581992954354519" y1="121.19648944058005" x2="106.95016020815831" y2="131.34678198719837" />
    <line x1="73.294372515228559" y1="73.294372515228645" x2="107.23549801218286" y2="107.23549801218292" />
    <line x1="118.54920651116761" y1="118.54920651116767" x2="152.4903320081219" y2="152.49033200812193" />
    <line x1="163.80404050710666" y1="163.80404050710669" x2="186.4314575050762" y2="186.4314575050762" />
    <line x1="209.05887450304573" y1="209.05887450304573" x2="220.37258300203047" y2="220.3725830020305" />
    <line x1="121.19648944057998" y1="94.581992954354575" x2="151.647367080435" y2="131.68649471576592" />
    <line x1="118.55226780360911" y1="56.750806844229857" x2="136.33051526023638" y2="83.357834437911322" />
    <line x1="171.88701017349092" y1="136.5718896252742" x2="180.77613390180454" y2="149.87540342211491" />
    <line x1="189.66525763011819" y1="163.17891721895566" x2="198.55438135843184" y2="176.48243101579638" />
    <line x1="129.8647831617605" y1="31.338896556394843" x2="137.40713095097647" y2="45.449636785968522" />
    <line x1="152.4918265294084" y1="73.67111724511588" x2="160.03417431862437" y2="87.781857474689559" />
    <line x1="167.57652210784033" y1="101.89259770426324" x2="175.1188698970563" y2="116.0033379338369" />
    <line x1="175.64771590374409" y1="80.397202278013566" x2="181.77065082158555" y2="95.179274798194172" />
    <line x1="187.89358573942698" y1="109.96134731837475" x2="200.13945557510988" y2="139.5254923587359" />
    <line x1="212.38532541079277" y1="169.08963739909709" x2="218.50826032863421" y2="183.87170991927766" />
    <line x1="173.331677458929" y1="13.334319424269893" x2="182.62078713107181" y2="43.956410167700568" />
    <line x1="196.55445163928602" y1="89.8895462828466" x2="201.19900647535741" y2="105.20059165456192" />
    <line x1="205.54265817290329" y1="54.689226162579786" x2="218.02843878193553" y2="117.45948410838652" />
    <line x1="222.61243481145141" y1="36.001576852183035" x2="224.18070905672437" y2="51.924532478938204" />
    <line x1="225.74898330199736" y1="67.847488105693344" x2="228.88553179254328" y2="99.693399359203653" />
  </g>
</svg>
